<svg xmlns="http://www.w3.org/2000/svg" viewBox="0 0 284.18 251.07"><defs><style>.cls-1{fill:none;stroke:#fff;stroke-linecap:round;stroke-miterlimit:10;stroke-width:11px;}.cls-2{fill:#fff;}</style></defs><title>Asset 1</title><g id="Layer_2" data-name="Layer 2"><g id="Layer_1-2" data-name="Layer 1"><path class="cls-1" d="M200.8,13.16a120,120,0,0,0-155,71.89c-4.45,12.42-5.89,34-6.34,45a37.42,37.42,0,0,1-3,13.25L6.86,211.69a19.35,19.35,0,0,0,17,26.42l73.21-7.43a11,11,0,0,1,6,1.07c3.85,1.88,10.78,5.18,15.15,6.75a120,120,0,0,0,154-74.09C293.2,103.26,261.34,35.81,200.8,13.16Z"/><path class="cls-2" d="M230.2,103.88h0a9.91,9.91,0,0,1-9.6,7.46H209.33a9.91,9.91,0,0,0-9.6,7.43l-2.49,9.64a9.91,9.91,0,0,0,9.59,12.39h3.47a9.92,9.92,0,0,1,9.53,12.66h0a9.92,9.92,0,0,1-9.53,7.16H196.84a9.92,9.92,0,0,0-9.58,7.38l-6.88,26a9.91,9.91,0,0,1-9.58,7.37h-6A9.91,9.91,0,0,1,155.24,189l4-16.1a9.91,9.91,0,0,0-9.62-12.31H138.32a9.92,9.92,0,0,0-9.61,7.49l-6.5,25.74a9.9,9.9,0,0,1-9.61,7.49h-5.89a9.91,9.91,0,0,1-9.62-12.28l4-16.16a9.91,9.91,0,0,0-9.62-12.28H89.93a9.91,9.91,0,0,1-9.63-12.25h0a9.91,9.91,0,0,1,9.63-7.57h11.49a9.93,9.93,0,0,0,9.62-7.51l2.41-9.64a9.91,9.91,0,0,0-9.62-12.31H100.1a9.91,9.91,0,0,1-9.67-12.08h0a9.91,9.91,0,0,1,9.67-7.75h13.47A9.92,9.92,0,0,0,123.2,84l6.56-26.7a9.91,9.91,0,0,1,9.63-7.54h6.39A9.91,9.91,0,0,1,155.41,62l-4.2,17.28a9.91,9.91,0,0,0,9.63,12.25h11.39A9.9,9.9,0,0,0,181.84,84l6.76-26.81a9.91,9.91,0,0,1,9.61-7.48h6.15A9.9,9.9,0,0,1,214,62l-4.24,17.24a9.91,9.91,0,0,0,9.63,12.27h1.23A9.91,9.91,0,0,1,230.2,103.88Zm-67.79,7.46h-11.7a9.9,9.9,0,0,0-9.59,7.43l-2.5,9.64a9.91,9.91,0,0,0,9.6,12.39h11.66a9.91,9.91,0,0,0,9.58-7.39l2.54-9.65A9.91,9.91,0,0,0,162.41,111.34Z"/></g></g></svg>