<svg id="Layer_1" data-name="Layer 1" xmlns="http://www.w3.org/2000/svg" viewBox="0 0 111 111"><defs><style>.cls-1{fill:none;stroke:#fff;stroke-miterlimit:10;stroke-width:7px;}.cls-2{fill:#fff;}</style></defs><title>irc_white</title><circle class="cls-1" cx="55.5" cy="55.5" r="52"/><path class="cls-2" d="M991.66,947.28c0,.31-1,.87-1.37,1.05,1.48-.77-3.26,1.49-3.3,1.94v.23a2.16,2.16,0,0,0,0,.36c.91,10.07,3.85,40.93,33.77,53.12,0,0-1.16,2.1-1.71,2.93s-2.75,3.56-2.78,3.55c-20.44-9.57-26.92-28.92-31.52-43.63h-.09c-3.31,14-11.68,32.72-32.47,43.11a28.52,28.52,0,0,1-2-2.7c-.49-.67-1.8-2.74-1.76-2.75,29.91-13.81,32.07-43,32.71-54.89a2.67,2.67,0,0,1,3-2.32Z" transform="translate(-928.92 -928.03)"/></svg>